<svg width="122" height="196" viewBox="0 0 122 196" fill="none" xmlns="http://www.w3.org/2000/svg">
<path d="M33.1826 164.224C46.2866 158.853 41.7366 143.287 28.6326 143.742C9.15866 144.561 7.88466 185.708 32.7276 187.255C65.7606 189.167 74.8606 110.242 93.4246 91.5806C64.2136 123.078 19.4416 122.44 19.4416 81.0208C19.4416 45.7004 55.2956 1.36791 88.8746 1.00378C111.352 0.730689 121.18 15.2958 120.998 25.8555C120.361 63.8158 72.0396 64.18 72.3126 45.6094C72.4946 29.1327 97.6106 33.2291 87.4186 50.6162C97.6106 50.8893 110.988 43.4247 110.897 25.8555C110.897 16.8433 105.073 8.10425 90.2396 8.37735C67.0346 8.74148 37.4596 49.8879 38.0056 79.3823C39.1886 135.822 106.256 60.8118 118.45 78.0168C95.5176 86.8469 98.0655 193.991 34.1836 194.993C5.97367 195.448 0.331667 174.056 1.05967 157.306C1.60567 143.651 16.8026 127.993 30.4526 128.813C62.9396 130.906 50.5636 174.056 33.1826 164.224Z" fill="#F8CA00" stroke="black" stroke-width="0.0040107" stroke-linejoin="round"/>
</svg>
