<svg xmlns="http://www.w3.org/2000/svg" width="135" height="164" viewBox="0 0 135 164">
  <g fill="none" fill-rule="evenodd">
    <path fill="#613EEA" d="M0,0 L135,0 C135,82.7236181 135,128.483223 135,137.278814 C135,146.074406 129.038437,152.341148 117.115312,156.079039 C101.535161,157.444374 91.2034423,158.127042 86.1201562,158.127042 C75.8784375,158.127042 66.9320406,164 66.6590625,164 C66.6590625,164 57.4340625,157.069988 41.7305219,157.069988 C36.8405102,157.069988 28.012055,156.739672 15.2451562,156.079039 C5.08171875,152.839596 0,146.572854 0,137.278814 C4.68463005e-16,127.984775 4.68463005e-16,82.22517 0,0 Z"/>
    <path fill="#F8CA00" fill-rule="nonzero" stroke="#000" stroke-linejoin="round" stroke-width=".004" d="M17.4321705,88.3428245 C24.5301424,85.435842 22.0655688,77.0109513 14.967597,77.257214 C4.4192547,77.7004869 3.7291741,99.9707541 17.1857132,100.808047 C35.0785172,101.842892 40.0076643,59.1257839 50.0631244,49.0255491 C34.2405622,66.0730985 9.98915842,65.7277894 9.98915842,43.3101976 C9.98915842,24.1935002 29.409998,0.199128788 47.5985508,0.0020482617 C59.7737608,-0.145758615 65.0972397,7.73741426 64.9986568,13.4527116 C64.6536165,33.9982198 38.4796287,34.1953382 38.6275031,24.1442476 C38.726086,15.2264526 52.330532,17.4435747 46.8098873,26.8541116 C52.330532,27.0019234 59.5765949,22.9618078 59.5273035,13.4527116 C59.5273035,8.57497808 56.3726493,3.84508334 48.3379229,3.99289509 C35.7685978,4.18997562 19.7488697,26.4599289 20.0446185,42.4233812 C20.6854076,72.9706192 57.0134385,32.3723447 63.6184956,41.6843225 C51.1968282,46.4634968 52.5769352,104.453818 17.9743767,104.996137 C2.69405863,105.2424 -0.3620142,93.6642639 0.0323191929,84.5985488 C0.328068019,77.2079615 8.55970576,68.7332769 15.9534264,69.177091 C33.5504816,70.3098995 26.8468415,93.6642639 17.4321705,88.3428245 Z" transform="translate(35 29)"/>
  </g>
</svg>
