<svg width="14" height="14" viewBox="0 0 14 14" fill="none" xmlns="http://www.w3.org/2000/svg">
<path d="M7 12.1917L9.8875 9.3042C10.4585 8.73312 10.8474 8.00554 11.0049 7.21346C11.1624 6.42138 11.0815 5.60038 10.7725 4.85428C10.4634 4.10817 9.94003 3.47046 9.26854 3.0218C8.59705 2.57314 7.80759 2.33366 7 2.33366C6.19241 2.33366 5.40296 2.57314 4.73147 3.0218C4.05998 3.47046 3.5366 4.10817 3.22753 4.85428C2.91846 5.60038 2.83758 6.42138 2.9951 7.21346C3.15262 8.00554 3.54148 8.73312 4.1125 9.3042L7 12.1917ZM7 13.8414L3.28767 10.129C2.55345 9.39481 2.05344 8.45935 1.85087 7.44095C1.64831 6.42255 1.75228 5.36695 2.14964 4.40764C2.547 3.44834 3.21991 2.6284 4.08327 2.05153C4.94662 1.47465 5.96165 1.16675 7 1.16675C8.03835 1.16675 9.05338 1.47465 9.91674 2.05153C10.7801 2.6284 11.453 3.44834 11.8504 4.40764C12.2477 5.36695 12.3517 6.42255 12.1491 7.44095C11.9466 8.45935 11.4466 9.39481 10.7123 10.129L7 13.8414V13.8414ZM7 7.58337C7.30942 7.58337 7.60617 7.46045 7.82496 7.24166C8.04375 7.02287 8.16667 6.72612 8.16667 6.4167C8.16667 6.10728 8.04375 5.81054 7.82496 5.59174C7.60617 5.37295 7.30942 5.25004 7 5.25004C6.69058 5.25004 6.39384 5.37295 6.17504 5.59174C5.95625 5.81054 5.83334 6.10728 5.83334 6.4167C5.83334 6.72612 5.95625 7.02287 6.17504 7.24166C6.39384 7.46045 6.69058 7.58337 7 7.58337ZM7 8.75004C6.38116 8.75004 5.78767 8.5042 5.35009 8.06662C4.9125 7.62903 4.66667 7.03554 4.66667 6.4167C4.66667 5.79786 4.9125 5.20437 5.35009 4.76679C5.78767 4.3292 6.38116 4.08337 7 4.08337C7.61884 4.08337 8.21233 4.3292 8.64992 4.76679C9.0875 5.20437 9.33334 5.79786 9.33334 6.4167C9.33334 7.03554 9.0875 7.62903 8.64992 8.06662C8.21233 8.5042 7.61884 8.75004 7 8.75004Z" fill="#613EEA"/>
</svg>
