<svg width="20" height="20" viewBox="0 0 20 20" fill="none" xmlns="http://www.w3.org/2000/svg">
<path d="M12.522 7.16033H18.0225C18.4784 7.16033 18.9156 7.34143 19.2379 7.66378C19.5603 7.98614 19.7414 8.42335 19.7414 8.87924V10.6875C19.7416 10.9122 19.6978 11.1347 19.6125 11.3424L16.9525 17.8013C16.8876 17.9587 16.7774 18.0934 16.6358 18.1881C16.4943 18.2828 16.3278 18.3333 16.1575 18.3333H1.69283C1.46489 18.3333 1.24628 18.2427 1.0851 18.0815C0.923924 17.9203 0.833374 17.7017 0.833374 17.4738V8.87924C0.833374 8.6513 0.923924 8.43269 1.0851 8.27151C1.24628 8.11033 1.46489 8.01978 1.69283 8.01978H4.68545C4.82305 8.01982 4.95864 7.98682 5.08083 7.92355C5.20302 7.86029 5.30824 7.76861 5.38763 7.65623L10.0742 1.01522C10.1335 0.931258 10.2209 0.871309 10.3205 0.846239C10.4202 0.821168 10.5255 0.832636 10.6174 0.878563L12.1765 1.65809C12.6152 1.87739 12.9657 2.24021 13.1698 2.68627C13.3738 3.13233 13.4191 3.63477 13.2981 4.11012L12.522 7.16033ZM5.99011 9.3846V16.6143H15.5816L18.0225 10.6875V8.87924H12.522C12.2602 8.8792 12.0019 8.81937 11.7667 8.7043C11.5316 8.58924 11.3258 8.42198 11.1651 8.2153C11.0045 8.00861 10.8931 7.76796 10.8396 7.51169C10.7861 7.25543 10.7918 6.99033 10.8563 6.73661L11.6324 3.68726C11.6567 3.59215 11.6477 3.49158 11.6069 3.40229C11.5661 3.31301 11.4959 3.24039 11.4081 3.19652L10.84 2.91289L6.79198 8.64718C6.57712 8.95143 6.30209 9.20067 5.99011 9.3846V9.3846ZM4.2712 9.73869H2.55229V16.6143H4.2712V9.73869Z" fill="#10C971"/>
</svg>
